<svg class="icon line" width="32" height="32" id="exchange" xmlns="http://www.w3.org/2000/svg" viewBox="0 0 24 24"><title style="stroke-width: 2; stroke: rgb(255, 255, 255);">exchange</title><path id="primary" d="M14.57,4.43a8,8,0,0,1,3.09,1.91,8.13,8.13,0,0,1,2,3.3M7,3a4,4,0,1,0,4,4A4,4,0,0,0,7,3ZM17,21a4,4,0,1,0-4-4A4,4,0,0,0,17,21Zm.85-12.19,1.81.84.84-1.81M4.35,14.36a8.13,8.13,0,0,0,2,3.3,8,8,0,0,0,3.09,1.91M6.15,15.19l-1.81-.84L3.5,16.16" style="fill: none; stroke: rgb(255, 255, 255); stroke-linecap: round; stroke-linejoin: round; stroke-width: 2;"></path></svg>